<svg xmlns="http://www.w3.org/2000/svg" width="32" height="32" viewBox="0 0 32 32">
  <defs>
    <linearGradient id="g" x1="0" y1="0" x2="1" y2="1">
      <stop offset="0%" stop-color="#7c3aed"/>
      <stop offset="100%" stop-color="#db2777"/>
    </linearGradient>
  </defs>
  <rect width="32" height="32" rx="8" fill="url(#g)"/>
  <!-- Gamepad body -->
  <path d="M6 15c0-3 2-5 5-5h10c3 0 5 2 5 5v2c0 4-2 7-5 8l-1-3h-8l-1 3c-3-1-5-4-5-8v-2z" fill="white" opacity="0.95"/>
  <!-- D-pad -->
  <rect x="9" y="13.5" width="6" height="2" rx="0.5" fill="url(#g)"/>
  <rect x="11" y="11.5" width="2" height="6" rx="0.5" fill="url(#g)"/>
  <!-- Buttons -->
  <circle cx="21" cy="13" r="1.3" fill="#7c3aed"/>
  <circle cx="24" cy="13" r="1.3" fill="#db2777"/>
  <circle cx="22.5" cy="15.5" r="1.3" fill="#a855f7"/>
</svg>
